#!OML:ASF E:\VariousWalksJay\Project 1\Capture day 1\Session 1\Actor2.ASF
:FULLY-SPECIFIED
:DEGREES
717
root 2.22171 17.2196 -6.47752 84.7848 -74.538 -89.8557
lowerback 8.23839 0.140011 15.9108
upperback 7.53579 0.585067 1.55434
thorax 3.72762 0.806885 -7.27858
lowerneck -4.71775 3.77991 3.46789
upperneck 11.1139 3.88141 6.22427
head 4.47548 2.28178 1.69658
rclavicle -8.94531e-015 3.97569e-015
rhumerus -65.6221 13.9553 -118.82
rradius 58.5234
rwrist 16.1463
rhand -2.42194 11.7931
rfingers 7.12502
rthumb 23.2686 -16.8209
lclavicle -8.94531e-015 3.97569e-015
lhumerus -69.8935 -27.729 132.431
lradius 55.2139
lwrist -2.31145
lhand 5.27866 -33.3271
lfingers 7.12502
lthumb 30.6357 -5.85686
rfemur -9.1087 2.17217 34.1377
rtibia 30.1041
rfoot -17.7098 3.85974
rtoes -15.0137
lfemur -72.4565 11.1146 -13.1427
ltibia 124.96
lfoot -19.0852 -12.4794
ltoes -21.1233
718
root 2.2225 17.243 -6.5295 82.667 -74.857 -87.7727
lowerback 8.20284 0.178501 15.428
upperback 7.55988 0.613769 1.44178
thorax 3.75585 0.810361 -7.13404
lowerneck -4.59486 3.70989 3.47494
upperneck 11.1015 3.78391 6.30083
head 4.44678 2.23468 1.71227
rclavicle -3.97569e-015 -2.3059e-014
rhumerus -65.5697 13.8095 -118.914
rradius 58.5685
rwrist 15.4483
rhand -2.14636 11.6296
rfingers 7.12502
rthumb 23.533 -16.9508
lclavicle -3.97569e-015 -2.3059e-014
lhumerus -70.1126 -27.9206 132.48
lradius 55.386
lwrist -2.12745
lhand 5.47808 -33.1823
lfingers 7.12502
lthumb 30.8259 -5.74778
rfemur -8.89225 2.07445 33.9436
rtibia 29.8672
rfoot -17.877 3.34645
rtoes -15.0174
lfemur -71.761 10.6679 -13.2708
ltibia 124.339
lfoot -19.2289 -11.7255
ltoes -21.0413
719
root 2.22338 17.2657 -6.57914 80.5061 -75.1672 -85.6001
lowerback 8.13392 0.225871 14.9501
upperback 7.57565 0.650615 1.32539
thorax 3.7958 0.818664 -6.9956
lowerneck -4.50521 3.63694 3.47106
upperneck 11.1023 3.68217 6.36933
head 4.42973 2.18568 1.72844
rclavicle -2.18663e-015 -3.02153e-014
rhumerus -65.5312 13.6894 -119.031
rradius 58.6003
rwrist 14.7577
rhand -1.85567 11.4291
rfingers 7.12502
rthumb 23.8118 -17.1152
lclavicle -2.18663e-015 -3.02153e-014
lhumerus -70.3622 -28.077 132.561
lradius 55.5473
lwrist -1.76049
lhand 5.77618 -33.035
lfingers 7.12502
lthumb 31.11 -5.65453
rfemur -8.73792 1.93933 33.7097
rtibia 29.66
rfoot -18.1023 2.90122
rtoes -15.1777
lfemur -71.0746 10.2809 -13.4417
ltibia 123.677
lfoot -19.3704 -10.9227
ltoes -20.9819
720
root 2.22474 17.2869 -6.62636 78.286 -75.4566 -83.3203
lowerback 8.03828 0.274618 14.4775
upperback 7.57925 0.687396 1.21457
thorax 3.8374 0.826435 -6.8531
lowerneck -4.45688 3.56758 3.4575
upperneck 11.1305 3.5848 6.41742
head 4.43108 2.13907 1.74175
rclavicle -4.87022e-014 -4.45278e-014
rhumerus -65.5044 13.5923 -119.131
rradius 58.6225
rwrist 14.0205
rhand -1.41269 11.2714
rfingers 7.12502
rthumb 24.2366 -17.2168
lclavicle -4.87022e-014 -4.45278e-014
lhumerus -70.6145 -28.1665 132.666
lradius 55.6783
lwrist -1.32274
lhand 6.12589 -32.8876
lfingers 7.12502
lthumb 31.4433 -5.57156
rfemur -8.65876 1.76614 33.4491
rtibia 29.5035
rfoot -18.3891 2.49836
rtoes -15.4896
lfemur -70.4127 9.94359 -13.6453
ltibia 122.975
lfoot -19.5008 -10.096
ltoes -20.9204
721
root 2.22732 17.306 -6.6714 75.961 -75.7161 -80.8915
lowerback 7.92587 0.316875 14.0131
upperback 7.57122 0.715461 1.11289
thorax 3.87393 0.828908 -6.70426
lowerneck -4.45191 3.50486 3.43543
upperneck 11.1854 3.49662 6.43801
head 4.45101 2.09706 1.74977
rclavicle -1.39149e-015 -2.06736e-014
rhumerus -65.501 13.5284 -119.217
rradius 58.6427
rwrist 13.2987
rhand -0.91426 11.1297
rfingers 7.12502
rthumb 24.7144 -17.294
lclavicle -1.39149e-015 -2.06736e-014
lhumerus -70.8587 -28.1905 132.781
lradius 55.7828
lwrist -0.897397
lhand 6.48935 -32.7429
lfingers 7.12502
lthumb 31.7895 -5.49497
rfemur -8.6604 1.54329 33.1708
rtibia 29.4128
rfoot -18.7377 2.11405
rtoes -15.9495
lfemur -69.7835 9.63097 -13.8749
ltibia 122.231
lfoot -19.6129 -9.25288
ltoes -20.9034
722
root 2.23141 17.3224 -6.71428 73.5062 -75.9348 -78.2996
lowerback 7.80997 0.347949 13.5629
upperback 7.5539 0.730538 1.02204
thorax 3.90012 0.823873 -6.5506
lowerneck -4.48422 3.45024 3.4168
upperneck 11.2566 3.42055 6.42342
head 4.48486 2.06088 1.74735
rclavicle -7.95139e-015 -2.62396e-014
rhumerus -65.5233 13.4926 -119.285
rradius 58.6693
rwrist 12.5841
rhand -0.368963 11.017
rfingers 7.12502
rthumb 25.2369 -17.334
lclavicle -7.95139e-015 -2.62396e-014
lhumerus -71.0798 -28.1422 132.88
lradius 55.8692
lwrist -0.545892
lhand 6.85095 -32.6018
lfingers 7.12502
lthumb 32.1338 -5.42282
rfemur -8.73723 1.26669 32.8837
rtibia 29.3979
rfoot -19.1468 1.73618
rtoes -16.5378
lfemur -69.1855 9.33264 -14.1212
ltibia 121.445
lfoot -19.6995 -8.42241
ltoes -20.8737
723
root 2.23717 17.335 -6.75534 70.91 -76.0936 -75.5457
lowerback 7.69985 0.365879 13.1429
upperback 7.53369 0.730797 0.946516
thorax 3.91849 0.811306 -6.39649
lowerneck -4.54357 3.40263 3.40164
upperneck 11.3223 3.35761 6.37316
head 4.52247 2.03034 1.73334
rclavicle 5.56597e-015 6.36111e-015
rhumerus -65.5748 13.4874 -119.349
rradius 58.7043
rwrist 11.9677
rhand 0.0718768 10.9107
rfingers 7.12502
rthumb 25.6592 -17.3802
lclavicle 5.56597e-015 6.36111e-015
lhumerus -71.2886 -28.0416 132.978
lradius 55.9427
lwrist -0.347912
lhand 7.15828 -32.463
lfingers 7.12502
lthumb 32.4263 -5.34353
rfemur -8.88248 0.925183 32.6051
rtibia 29.4662
rfoot -19.6127 1.36791
rtoes -17.233
lfemur -68.6159 9.04492 -14.3655
ltibia 120.617
lfoot -19.7613 -7.62013
ltoes -20.8375
724
root 2.24456 17.3431 -6.79488 68.1933 -76.1766 -72.6629
lowerback 7.60562 0.366673 12.7611
upperback 7.51467 0.711664 0.891557
thorax 3.92738 0.789074 -6.2408
lowerneck -4.61624 3.36419 3.38702
upperneck 11.3643 3.31299 6.28893
head 4.5542 2.00729 1.70814
rclavicle -1.07344e-014 -2.14687e-014
rhumerus -65.6719 13.5298 -119.437
rradius 58.7462
rwrist 11.5709
rhand 0.238655 10.7827
rfingers 7.12502
rthumb 25.8189 -17.485
lclavicle -1.07344e-014 -2.14687e-014
lhumerus -71.4534 -27.8782 133.035
lradius 56.0171
lwrist -0.24022
lhand 7.4691 -32.3274
lfingers 7.12502
lthumb 32.7221 -5.26893
rfemur -9.08809 0.51461 32.3513
rtibia 29.6221
rfoot -20.13 1.01637
rtoes -18.0376
lfemur -68.0681 8.76858 -14.5909
ltibia 119.75
lfoot -19.8011 -6.85904
ltoes -20.7989
725
root 2.25351 17.3461 -6.83332 65.4015 -76.1675 -69.7106
lowerback 7.53664 0.35374 12.4357
upperback 7.50203 0.678585 0.85892
thorax 3.9294 0.760946 -6.09234
lowerneck -4.68874 3.32945 3.37464
upperneck 11.3631 3.28041 6.17773
head 4.57017 1.98829 1.67256
rclavicle 2.54444e-014 9.54166e-015
rhumerus -65.7989 13.5992 -119.541
rradius 58.8016
rwrist 11.3754
rhand 0.167627 10.6345
rfingers 7.12502
rthumb 25.7509 -17.6431
lclavicle 2.54444e-014 9.54166e-015
lhumerus -71.5893 -27.6871 133.06
lradius 56.1085
lwrist -0.179278
lhand 7.79841 -32.1946
lfingers 7.12502
lthumb 33.0353 -5.20184
rfemur -9.34526 0.0378788 32.1417
rtibia 29.8702
rfoot -20.6923 0.696406
rtoes -18.9326
lfemur -67.5342 8.51053 -14.7764
ltibia 118.841
lfoot -19.8194 -6.15125
ltoes -20.7405
726
root 2.26386 17.3433 -6.87096 62.623 -76.0514 -66.7877
lowerback 7.49762 0.32805 12.185
upperback 7.50017 0.633092 0.852345
thorax 3.92781 0.728644 -5.95749
lowerneck -4.75405 3.29612 3.35786
upperneck 11.3098 3.25692 6.05016
head 4.56545 1.97178 1.63087
rclavicle 3.00165e-014 4.77083e-015
rhumerus -65.9482 13.6919 -119.656
rradius 58.8721
rwrist 11.3735
rhand -0.113795 10.4695
rfingers 7.12502
rthumb 25.4814 -17.8468
lclavicle 3.00165e-014 4.77083e-015
lhumerus -71.6837 -27.475 133.047
lradius 56.2145
lwrist -0.142681
lhand 8.15809 -32.0655
lfingers 7.12502
lthumb 33.3773 -5.1457
rfemur -9.64961 -0.494533 32.0002
rtibia 30.2144
rfoot -21.2893 0.418863
rtoes -19.9027
lfemur -67.0093 8.28395 -14.9003
ltibia 117.89
lfoot -19.8261 -5.49183
ltoes -20.6635
